<svg width="43" height="59" viewBox="0 0 43 59" version="1.1" xmlns="http://www.w3.org/2000/svg" xmlns:xlink="http://www.w3.org/1999/xlink">
<title>Group</title>
<desc>Created using Figma</desc>
<g id="Canvas" transform="translate(-5193 -2875)">
<g id="Group">
<g id="Vector">
<use xlink:href="#path0_fill" transform="translate(5206.4 2919.25)" fill="#FDF396"/>
</g>
<g id="Vector">
<use xlink:href="#path1_fill" transform="translate(5193 2875)" fill="#FDF396"/>
</g>
</g>
</g>
<defs>
<path id="path0_fill" d="M 13.0287 8.27741e-07L 1.86106 8.27741e-07C 1.36528 8.27741e-07 0.930774 0.185503 0.558529 0.553607C 0.185959 0.922679 -1.01464e-06 1.35246 -1.01464e-06 1.84423L -1.01464e-06 12.9075C -1.01464e-06 13.3993 0.186611 13.8297 0.558529 14.1981C 0.930774 14.5661 1.36479 14.7513 1.86106 14.7513L 13.0287 14.7513C 13.5245 14.7513 13.9601 14.5666 14.3309 14.1981C 14.7041 13.8297 14.8904 13.3993 14.8904 12.9075L 14.8904 1.84423C 14.8904 1.35246 14.7046 0.922679 14.3309 0.553607C 13.9601 0.184535 13.5245 8.27741e-07 13.0287 8.27741e-07Z"/>
<path id="path1_fill" d="M 41.0922 11.1321C 39.82 8.81075 38.1763 6.8527 36.1594 5.25435C 34.1439 3.65666 31.8778 2.38073 29.3656 1.4285C 26.853 0.476597 24.356 0 21.8738 0C 12.444 0 5.24732 4.08708 0.283628 12.2614C 0.0357366 12.6607 -0.0498273 13.0908 0.0275878 13.5519C 0.105492 14.0123 0.345887 14.3966 0.749097 14.7038L 8.38044 20.4661C 8.78365 20.7115 9.17154 20.8343 9.54395 20.8343C 10.1025 20.8343 10.5829 20.5881 10.9866 20.0965C 13.2198 17.3312 14.8797 15.5643 15.9653 14.7957C 17.2995 13.9048 18.9741 13.4595 20.9905 13.4595C 22.8827 13.4595 24.5496 13.9513 25.9926 14.9339C 27.435 15.9174 28.1555 17.0545 28.1555 18.3451C 28.1555 19.7888 27.7684 20.957 26.9927 21.8482C 26.2174 22.7391 24.914 23.5991 23.0834 24.4292C 20.6645 25.5046 18.4455 27.1718 16.4301 29.4305C 14.4133 31.6894 13.4056 34.094 13.4056 36.6444L 13.4056 38.7185C 13.4056 39.303 13.5676 39.8788 13.8939 40.4473C 14.2198 41.0163 14.615 41.3002 15.0807 41.3002L 26.2482 41.3002C 26.7446 41.3002 27.1785 41.0626 27.551 40.5847C 27.9225 40.1097 28.1094 39.6102 28.1094 39.0886C 28.1094 38.3205 28.5359 37.29 29.3883 36C 30.2415 34.7094 31.3036 33.7097 32.5765 33.0027C 33.7856 32.3269 34.7309 31.7822 35.4141 31.3668C 36.098 30.9525 36.9892 30.2826 38.0907 29.3614C 39.1918 28.4392 40.045 27.5249 40.6492 26.6187C 41.2543 25.7124 41.7975 24.5367 42.2783 23.092C 42.7601 21.6479 43 20.0959 43 18.4367C 42.9997 15.8861 42.3632 13.451 41.0922 11.1321Z"/>
</defs>
</svg>
