<svg width="106" height="103" viewBox="0 0 106 103" version="1.1" xmlns="http://www.w3.org/2000/svg" xmlns:xlink="http://www.w3.org/1999/xlink">
<g id="Canvas" fill="none">
<g id="Group 3.2">
<g id="Group 3">
<g id="Group">
<g id="&#208;&#145;&#208;&#181;&#208;&#183;&#209;&#139;&#208;&#188;&#209;&#143;&#208;&#189;&#208;&#189;&#209;&#139;&#208;&#185;-2">
<g id="&#208;&#161;&#208;&#187;&#208;&#190;&#208;&#185; x0020 1">
<g id="798957216">
<g id="Vector">
<path d="M 46.5427 100L 0 100L 0 0L 73 0L 73 73.0538" stroke-width="2" stroke-miterlimit="22.9256" transform="translate(1 1)" stroke="#4F4F4F"/>
</g>
<g id="Vector_2">
<path fill-rule="evenodd" clip-rule="evenodd" d="M -3.33369e-06 13.8275L 20.4475 42.7167L 50.9945 -2.73373e-06L 21.6789 27.9014L -3.33369e-06 13.8275Z" transform="translate(47.0693 58.2832)" fill="#4F4F4F"/>
<path d="M -3.33369e-06 13.8275L 20.4475 42.7167L 50.9945 -2.73373e-06L 21.6789 27.9014L -3.33369e-06 13.8275Z" stroke-width="2" stroke-miterlimit="22.9256" transform="translate(47.0693 58.2832)" stroke="#4F4F4F"/>
</g>
<g id="Vector_3">
<path d="M -3.03063e-07 1.09863e-05L 43.3602 1.09863e-05L 24.884 1.09863e-05" stroke-width="2" stroke-miterlimit="22.9256" transform="translate(17.1289 63.9033)" stroke="#4F4F4F"/>
</g>
<g id="Vector_4">
<path d="M -3.03063e-07 1.2207e-06L 43.3602 1.2207e-06L 24.884 1.2207e-06" stroke-width="2" stroke-miterlimit="22.9256" transform="translate(17.1289 54.2256)" stroke="#4F4F4F"/>
</g>
<g id="Vector_5">
<path d="M -3.03063e-07 -1.2207e-06L 43.3602 -1.2207e-06L 24.884 -1.2207e-06" stroke-width="2" stroke-miterlimit="22.9256" transform="translate(17.1289 44.5483)" stroke="#4F4F4F"/>
</g>
<g id="Vector_6">
<path d="M -3.03063e-07 -2.44141e-06L 43.3602 -2.44141e-06L 24.884 -2.44141e-06" stroke-width="2" stroke-miterlimit="22.9256" transform="translate(17.1289 34.8711)" stroke="#4F4F4F"/>
</g>
<g id="Vector_7">
<path d="M -3.03063e-07 -4.88281e-06L 43.3602 -4.88281e-06L 24.884 -4.88281e-06" stroke-width="2" stroke-miterlimit="22.9256" transform="translate(17.1289 25.1934)" stroke="#4F4F4F"/>
</g>
<g id="Vector_8">
<path d="M -3.03063e-07 -4.88281e-06L 43.3602 -4.88281e-06L 24.884 -4.88281e-06" stroke-width="2" stroke-miterlimit="22.9256" transform="translate(17.1289 15.5161)" stroke="#4F4F4F"/>
</g>
<g id="Vector_9">
<path d="M 0 0.000102382L 20.9677 -7.8755e-06L 24.884 0.000102382" stroke-width="2" stroke-miterlimit="22.9256" transform="translate(17.1289 73.5806)" stroke="#4F4F4F"/>
</g>
</g>
</g>
</g>
</g>
</g>
</g>
</g>
</svg>

