<svg width="55" height="44" viewBox="0 0 55 44" version="1.1" xmlns="http://www.w3.org/2000/svg" xmlns:xlink="http://www.w3.org/1999/xlink">
<title>Group</title>
<desc>Created using Figma</desc>
<g id="Canvas" transform="translate(-4013 -743)">
<g id="Group">
<g id="Vector">
<use xlink:href="#path0_fill" transform="translate(4013 743)" fill="#FDF396"/>
</g>
<g id="Vector">
<use xlink:href="#path1_fill" transform="translate(4020.33 776)" fill="#FDF396"/>
</g>
<g id="Vector">
<use xlink:href="#path2_fill" transform="translate(4031.33 776)" fill="#FDF396"/>
</g>
</g>
</g>
<defs>
<path id="path0_fill" d="M 53.6533 1.34619C 52.7559 0.448695 51.677 -8.57349e-08 50.4168 -8.57349e-08L 4.5833 -8.57349e-08C 3.32292 -8.57349e-08 2.24424 0.448595 1.34616 1.34619C 0.448588 2.24388 0 3.32257 0 4.58307L 0 39.4164C 0 40.6772 0.448588 41.756 1.34616 42.6536C 2.24424 43.5512 3.32292 44 4.5833 44L 50.4168 44C 51.677 44 52.7558 43.5512 53.6533 42.6536C 54.5508 41.7561 55 40.6773 55 39.4164L 55 4.58307C 55 3.32257 54.5508 2.24388 53.6533 1.34619ZM 51.3329 39.4171C 51.3329 39.6658 51.2423 39.88 51.0609 40.062C 50.8796 40.2426 50.6647 40.3332 50.4168 40.3332L 4.5833 40.3332C 4.33518 40.3332 4.12026 40.2426 3.93886 40.0613C 3.75756 39.8794 3.66676 39.6651 3.66676 39.4164L 3.66676 22L 51.333 22L 51.333 39.4171L 51.3329 39.4171ZM 51.3329 10.9994L 3.66666 10.9994L 3.66666 4.58267C 3.66666 4.33444 3.75716 4.12003 3.93876 3.93822C 4.12026 3.75732 4.33518 3.66652 4.5832 3.66652L 50.4167 3.66652C 50.6646 3.66652 50.8795 3.75692 51.0608 3.93822C 51.2422 4.12003 51.3328 4.33444 51.3328 4.58267L 51.3328 10.9994L 51.3329 10.9994Z"/>
<path id="path1_fill" d="M 7.33322 0L 0 0L 0 3.66702L 7.33322 3.66702L 7.33322 0Z"/>
<path id="path2_fill" d="M 10.9999 0L 0 0L 0 3.66702L 10.9999 3.66702L 10.9999 0Z"/>
</defs>
</svg>
