<svg width="58" height="58" viewBox="0 0 58 58" version="1.1" xmlns="http://www.w3.org/2000/svg" xmlns:xlink="http://www.w3.org/1999/xlink">
<title>Vector</title>
<desc>Created using Figma</desc>
<g id="Canvas" transform="translate(-5186 -2624)">
<g id="Vector">
<use xlink:href="#path0_fill" transform="translate(5186 2624)" fill="#FDF396"/>
</g>
</g>
<defs>
<path id="path0_fill" d="M 56.7107 50.4019L 44.7552 38.4468C 47.6363 34.2876 49.0777 29.6509 49.0777 24.5392C 49.0777 21.2163 48.4326 18.0383 47.1424 15.0059C 45.8531 11.9731 44.1101 9.35903 41.9142 7.16309C 39.7183 4.96715 37.1046 3.22414 34.0724 1.93468C 31.0392 0.644853 27.8615 3.18361e-12 24.5386 3.18361e-12C 21.216 3.18361e-12 18.0381 0.644853 15.0058 1.93468C 11.973 3.22414 9.35891 4.96715 7.163 7.16309C 4.96684 9.35903 3.2241 11.9736 1.93453 15.0059C 0.644845 18.0387 0 21.2163 0 24.5392C 0 27.8619 0.644845 31.0388 1.93453 34.072C 3.22398 37.1043 4.96684 39.718 7.163 41.914C 9.35891 44.1106 11.9735 45.8529 15.0058 47.1431C 18.0384 48.4327 21.216 49.0774 24.5386 49.0774C 29.6514 49.0774 34.2873 47.636 38.4466 44.755L 50.4021 56.6755C 51.2387 57.5583 52.283 58 53.5388 58C 54.7471 58 55.7933 57.5584 56.6756 56.6755C 57.5583 55.7928 58 54.747 58 53.5388C 58.0004 52.3079 57.5705 51.2618 56.7107 50.4019ZM 35.5706 35.5701C 32.515 38.6262 28.8379 40.1542 24.5386 40.1542C 20.2401 40.1542 16.5631 38.6259 13.5072 35.5701C 10.4513 32.5144 8.92344 28.8378 8.92344 24.5385C 8.92344 20.2399 10.4517 16.5622 13.5072 13.5069C 16.5624 10.4508 20.2401 8.92307 24.5386 8.92307C 28.8374 8.92307 32.5145 10.4514 35.5706 13.5069C 38.6267 16.5622 40.1546 20.2399 40.1546 24.5385C 40.1546 28.8378 38.6262 32.5144 35.5706 35.5701Z"/>
</defs>
</svg>
