<svg width="53" height="53" viewBox="0 0 53 53" version="1.1" xmlns="http://www.w3.org/2000/svg" xmlns:xlink="http://www.w3.org/1999/xlink">
<title>Vector</title>
<desc>Created using Figma</desc>
<g id="Canvas" transform="translate(-3820 -744)">
<g id="Vector">
<use xlink:href="#path0_fill" transform="translate(3820 744)" fill="#FDF396"/>
</g>
</g>
<defs>
<path id="path0_fill" d="M 51.3902 20.0819C 50.6949 19.3876 49.8503 19.0406 48.8576 19.0406L 33.366 19.0406L 33.366 3.56973C 33.366 2.57837 33.0182 1.73524 32.3233 1.04099C 31.6282 0.347256 30.7846 0 29.7904 0L 22.6412 0C 21.6483 0 20.8042 0.346866 20.109 1.04112C 19.4138 1.73537 19.0663 2.5785 19.0663 3.56986L 19.0663 19.0407L 3.57475 19.0407C 2.58203 19.0407 1.73775 19.3877 1.04254 20.082C 0.347341 20.7762 0 21.6186 0 22.6106L 0 29.751C 0 30.7433 0.34721 31.5857 1.04241 32.2793C 1.73762 32.9738 2.5819 33.3206 3.57462 33.3206L 19.0662 33.3206L 19.0662 48.7917C 19.0662 49.7831 19.4136 50.6269 20.1088 51.3209C 20.804 52.0145 21.6482 52.3612 22.641 52.3612L 29.7908 52.3612C 30.7843 52.3612 31.6281 52.0145 32.3234 51.3209C 33.0189 50.6265 33.3661 49.7831 33.3661 48.7917L 33.3661 33.3206L 48.8575 33.3206C 49.8511 33.3206 50.6951 32.9738 51.3901 32.2793C 52.0852 31.5857 52.4328 30.7433 52.4328 29.751L 52.4328 22.6106C 52.4325 21.6186 52.0857 20.7757 51.3902 20.0819Z"/>
</defs>
</svg>
