<svg width="11" height="10" viewBox="0 0 11 10" version="1.1" xmlns="http://www.w3.org/2000/svg" xmlns:xlink="http://www.w3.org/1999/xlink">
<title>Vector</title>
<desc>Created using Figma</desc>
<g id="Canvas" transform="translate(-14434 -761)">
<g id="Vector">
<use xlink:href="#path0_fill" transform="matrix(-1 0 0 1 14445 761)" fill="#4F4F4F"/>
</g>
</g>
<defs>
<path id="path0_fill" d="M 10.6268 4.53447C 10.3777 4.28916 10.0791 4.16657 9.73095 4.16657L 9.30797 4.16657L 9.30797 2.49991C 9.30797 2.32635 9.26374 2.13529 9.17555 1.92705C 9.08743 1.71872 8.98173 1.55381 8.85836 1.43227L 7.8534 0.442655C 7.73004 0.321228 7.56259 0.217018 7.35115 0.13016C 7.13956 0.0433944 6.94577 -2.08769e-09 6.76938 -2.08769e-09L 2.32699 -2.08769e-09C 2.15069 -2.08769e-09 2.00081 0.0607248 1.8774 0.182266C 1.75406 0.303738 1.69231 0.45132 1.69231 0.624966L 1.69231 4.16657L 1.26926 4.16657C 0.921093 4.16657 0.622521 4.28923 0.373475 4.53447C 0.124476 4.77965 0 5.07372 0 5.41664L 0 8.12503C 0 8.18154 0.0209545 8.23013 0.0627939 8.27157C 0.10468 8.3127 0.154276 8.33329 0.211513 8.33329L 1.69231 8.33329L 1.69231 9.37494C 1.69231 9.54863 1.75399 9.69622 1.8774 9.81771C 2.00081 9.93914 2.15069 10 2.32699 10L 8.67313 10C 8.84936 10 8.99944 9.93914 9.12274 9.81771C 9.2461 9.69613 9.30783 9.54863 9.30783 9.37494L 9.30783 8.33329L 10.7886 8.33329C 10.8458 8.33329 10.8954 8.3127 10.9373 8.27157C 10.9791 8.23016 11 8.18154 11 8.12503L 11 5.41664C 11.0001 5.07372 10.8757 4.77965 10.6268 4.53447ZM 8.46164 9.16666L 2.53852 9.16666L 2.53852 7.50005L 8.46164 7.50005L 8.46164 9.16666ZM 8.46164 4.99995L 2.53852 4.99995L 2.53852 0.833341L 6.76938 0.833341L 6.76938 1.87497C 6.76938 2.04859 6.83118 2.1961 6.9544 2.31767C 7.07777 2.43921 7.2276 2.49993 7.40398 2.49993L 8.46164 2.49993L 8.46164 4.99995ZM 10.0284 5.70957C 9.94473 5.79198 9.84554 5.83334 9.73095 5.83334C 9.61636 5.83334 9.51717 5.792 9.43346 5.70957C 9.34981 5.62725 9.30797 5.52947 9.30797 5.41661C 9.30797 5.30376 9.34981 5.20609 9.43346 5.12366C 9.51714 5.04118 9.61633 4.99993 9.73095 4.99993C 9.84551 4.99993 9.94471 5.04118 10.0284 5.12366C 10.1121 5.20607 10.1541 5.30376 10.1541 5.41661C 10.1541 5.52947 10.1122 5.62725 10.0284 5.70957Z"/>
</defs>
</svg>
