<svg width="87" height="39" viewBox="0 0 87 39" version="1.1" xmlns="http://www.w3.org/2000/svg" xmlns:xlink="http://www.w3.org/1999/xlink">
<title>Vector</title>
<desc>Created using Figma</desc>
<g id="Canvas" transform="translate(-4094 -461)">
<g id="Vector">
<use xlink:href="#path0_fill" transform="translate(4094 461)" fill="#FFFFFF"/>
<mask id="mask0_outline_ins">
<use xlink:href="#path0_fill" fill="white" transform="translate(4094 461)"/>
</mask>
<g mask="url(#mask0_outline_ins)">
<use xlink:href="#path1_stroke_2x" transform="translate(4094 461)" fill="##4F4F4F"/>
</g>
</g>
</g>
<defs>
<path id="path0_fill" d="M 86.496 18.1839L 67.1631 0.408643C 66.626 -0.0314289 66.0388 -0.116099 65.4009 0.15481C 64.7638 0.426074 64.4439 0.916663 64.4439 1.628L 64.4439 13.004L 1.61107 13.004C 1.14094 13.004 0.754749 13.1561 0.453026 13.4608C 0.151479 13.7654 0 14.1549 0 14.6288L 0 24.3794C 0 24.8531 0.150773 25.2426 0.452849 25.5468C 0.755278 25.8513 1.14147 26.0034 1.6109 26.0034L 64.4443 26.0034L 64.4443 37.3793C 64.4443 38.0574 64.7647 38.5479 65.4015 38.8518C 66.0398 39.1237 66.6271 39.0209 67.1642 38.5479L 86.4971 20.5685C 86.8326 20.2302 87 19.8246 87 19.3502C 87 18.9112 86.8316 18.5224 86.496 18.1839Z"/>
<path id="path1_stroke_2x" d="M 86.496 18.1839L 89.3367 15.3677L 89.2715 15.302L 89.2033 15.2393L 86.496 18.1839ZM 67.1631 0.408643L 69.8705 -2.53592L 69.7864 -2.61317L 69.6981 -2.68551L 67.1631 0.408643ZM 65.4009 0.15481L 63.8372 -3.52687L 63.834 -3.5255L 65.4009 0.15481ZM 64.4439 13.004L 64.4439 17.004L 68.4439 17.004L 68.4439 13.004L 64.4439 13.004ZM 0.453026 13.4608L -2.38928 10.6464L -2.38928 10.6464L 0.453026 13.4608ZM 0.452849 25.5468L 3.29104 22.7282L 3.29104 22.7282L 0.452849 25.5468ZM 64.4443 26.0034L 68.4443 26.0034L 68.4443 22.0034L 64.4443 22.0034L 64.4443 26.0034ZM 65.4015 38.8518L 63.679 42.4619L 63.7556 42.4984L 63.8336 42.5317L 65.4015 38.8518ZM 67.1642 38.5479L 69.8076 41.55L 69.8484 41.514L 69.8882 41.477L 67.1642 38.5479ZM 86.4971 20.5685L 89.2211 23.4976L 89.2802 23.4427L 89.337 23.3854L 86.4971 20.5685ZM 87 19.3502L 83 19.3502L 87 19.3502ZM 89.2033 15.2393L 69.8705 -2.53592L 64.4558 3.3532L 83.7887 21.1284L 89.2033 15.2393ZM 69.6981 -2.68551C 68.9631 -3.28772 68.0205 -3.78116 66.8902 -3.94401C 65.7594 -4.10694 64.7145 -3.89946 63.8372 -3.52687L 66.9647 3.83649C 66.7253 3.93817 66.2929 4.05254 65.7494 3.97423C 65.2065 3.89601 64.826 3.66494 64.6282 3.5028L 69.6981 -2.68551ZM 63.834 -3.5255C 62.9219 -3.13716 61.998 -2.48123 61.3301 -1.4541C 60.6664 -0.433388 60.4439 0.664069 60.4439 1.628L 68.4439 1.628C 68.4439 1.88059 68.3814 2.37709 68.037 2.90685C 67.6883 3.44304 67.2429 3.71805 66.9679 3.83512L 63.834 -3.5255ZM 60.4439 1.628L 60.4439 13.004L 68.4439 13.004L 68.4439 1.628L 60.4439 1.628ZM 64.4439 9.00404L 1.61107 9.00404L 1.61107 17.004L 64.4439 17.004L 64.4439 9.00404ZM 1.61107 9.00404C 0.18908 9.00404 -1.25855 9.50445 -2.38928 10.6464L 3.29533 16.2753C 3.06859 16.5043 2.77617 16.7053 2.43612 16.8394C 2.10357 16.9705 1.81146 17.004 1.61107 17.004L 1.61107 9.00404ZM -2.38928 10.6464C -3.51171 11.7799 -4 13.2191 -4 14.6288L 4 14.6288C 4 14.8219 3.96808 15.1048 3.84242 15.4286C 3.71389 15.7598 3.52001 16.0484 3.29533 16.2753L -2.38928 10.6464ZM -4 14.6288L -4 24.3794L 4 24.3794L 4 14.6288L -4 14.6288ZM -4 24.3794C -4 25.7842 -3.51523 27.2277 -2.38534 28.3654L 3.29104 22.7282C 3.51851 22.9572 3.71371 23.2481 3.84267 23.5807C 3.96859 23.9055 4 24.1883 4 24.3794L -4 24.3794ZM -2.38534 28.3654C -1.25661 29.502 0.187768 30.0034 1.6109 30.0034L 1.6109 22.0034C 1.81248 22.0034 2.10446 22.0372 2.43612 22.168C 2.77501 22.3016 3.06581 22.5014 3.29104 22.7282L -2.38534 28.3654ZM 1.6109 30.0034L 64.4443 30.0034L 64.4443 22.0034L 1.6109 22.0034L 1.6109 30.0034ZM 60.4443 26.0034L 60.4443 37.3793L 68.4443 37.3793L 68.4443 26.0034L 60.4443 26.0034ZM 60.4443 37.3793C 60.4443 38.3702 60.687 39.4474 61.3316 40.4378C 61.9691 41.4173 62.8348 42.0591 63.679 42.4619L 67.1239 35.2416C 67.3314 35.3406 67.7185 35.5852 68.0366 36.074C 68.3618 36.5736 68.4443 37.0664 68.4443 37.3793L 60.4443 37.3793ZM 63.8336 42.5317C 64.7458 42.9203 65.8341 43.1229 67.0028 42.9206C 68.1609 42.7202 69.0985 42.1744 69.8076 41.55L 64.5208 35.5459C 64.6928 35.3944 65.0682 35.1365 65.6388 35.0378C 66.22 34.9372 66.6956 35.0552 66.9693 35.1718L 63.8336 42.5317ZM 69.8882 41.477L 89.2211 23.4976L 83.773 17.6394L 64.4402 35.6188L 69.8882 41.477ZM 89.337 23.3854C 90.4124 22.3012 91 20.8845 91 19.3502L 83 19.3502C 83 19.1066 83.0453 18.8033 83.177 18.4842C 83.3086 18.1654 83.4893 17.9209 83.6572 17.7516L 89.337 23.3854ZM 91 19.3502C 91 17.7573 90.3421 16.3819 89.3367 15.3677L 83.6553 21C 83.5163 20.8597 83.3397 20.6345 83.2023 20.3168C 83.0621 19.9925 83 19.6574 83 19.3502L 91 19.3502Z"/>
</defs>
</svg>
