<?xml version="1.0" encoding="UTF-8" standalone="no"?>
<svg
   xmlns:dc="http://purl.org/dc/elements/1.1/"
   xmlns:cc="http://creativecommons.org/ns#"
   xmlns:rdf="http://www.w3.org/1999/02/22-rdf-syntax-ns#"
   xmlns:svg="http://www.w3.org/2000/svg"
   xmlns="http://www.w3.org/2000/svg"
   xmlns:sodipodi="http://sodipodi.sourceforge.net/DTD/sodipodi-0.dtd"
   xmlns:inkscape="http://www.inkscape.org/namespaces/inkscape"
   width="72"
   height="64"
   viewBox="0 0 72 64"
   version="1.1"
   id="svg1482"
   sodipodi:docname="icon_notorize.svg"
   inkscape:version="0.92.2 2405546, 2018-03-11">
  <metadata
     id="metadata1488">
    <rdf:RDF>
      <cc:Work
         rdf:about="">
        <dc:format>image/svg+xml</dc:format>
        <dc:type
           rdf:resource="http://purl.org/dc/dcmitype/StillImage" />
        <dc:title></dc:title>
      </cc:Work>
    </rdf:RDF>
  </metadata>
  <defs
     id="defs1486" />
  <sodipodi:namedview
     pagecolor="#ffffff"
     bordercolor="#666666"
     borderopacity="1"
     objecttolerance="10"
     gridtolerance="10"
     guidetolerance="10"
     inkscape:pageopacity="0"
     inkscape:pageshadow="2"
     inkscape:window-width="3200"
     inkscape:window-height="1763"
     id="namedview1484"
     showgrid="false"
     inkscape:zoom="24.578125"
     inkscape:cx="36"
     inkscape:cy="32"
     inkscape:window-x="0"
     inkscape:window-y="18"
     inkscape:window-maximized="0"
     inkscape:current-layer="svg1482" />
  <g
     id="Canvas"
     fill="none">
    <g
       id="Group 2">
      <g
         id="Безымянный-1">
        <g
           id="Слой x0020 1">
          <g
             id="798126592">
            <g
               id="Vector">
              <path
                 d="M -3.75798e-07 8.28324C 1.74707 9.5776 5.94466 3.70899 8.64607 0.1005C 9.17558 -0.606079 8.19353 2.62752 7.96726 3.1212C 6.0678 7.24188 6.19248 6.70038 8.57065 6.25452C 9.50037 6.08019 7.5378 9.75348 8.70303 8.90342C 17.0166 2.86202 8.35207 10.7686 12.602 8.51002C 14.152 7.68465 15.8145 6.05705 17.1151 7.56432C 17.817 8.37426 18.502 7.20177 19.9597 8.365C 20.3845 8.70286 23.5062 6.89939 24.422 6.54764"
                 stroke-width="2"
                 stroke-miterlimit="22.9256"
                 transform="translate(7.59424 46.3071)"
                 stroke="#FDF396"
                 id="path1441" />
            </g>
            <g
               id="Vector_2">
              <path
                 d="M 46.2273 50.397L 46.2273 62L 1.87899e-07 62L 1.87899e-07 -3.76648e-07L 45.213 -3.76648e-07L 45.213 27.4424"
                 stroke-width="2"
                 stroke-miterlimit="22.9256"
                 transform="translate(1 1)"
                 stroke="#FDF396"
                 id="path1444" />
            </g>
            <g
               id="Vector_3">
              <path
                 d="M 3.75798e-07 -7.32422e-06L 27.0434 -7.32422e-06"
                 stroke-width="2"
                 stroke-miterlimit="22.9256"
                 transform="translate(10.4233 10)"
                 stroke="#FDF396"
                 id="path1447" />
            </g>
            <g
               id="Vector_4">
              <path
                 d="M 3.75798e-07 3.05176e-06L 27.0434 3.05176e-06"
                 stroke-width="2"
                 stroke-miterlimit="22.9256"
                 transform="translate(10.4233 16)"
                 stroke="#FDF396"
                 id="path1450" />
            </g>
            <g
               id="Vector_5">
              <path
                 d="M 3.75798e-07 -6.10352e-07L 27.0434 -6.10352e-07"
                 stroke-width="2"
                 stroke-miterlimit="22.9256"
                 transform="translate(10.4233 22)"
                 stroke="#FDF396"
                 id="path1453" />
            </g>
            <g
               id="Vector_6">
              <path
                 d="M 3.75798e-07 7.32422e-06L 27.0434 7.32422e-06"
                 stroke-width="2"
                 stroke-miterlimit="22.9256"
                 transform="translate(10.4233 28)"
                 stroke="#FDF396"
                 id="path1456" />
            </g>
            <g
               id="Vector_7">
              <path
                 d="M 3.75798e-07 1.2207e-05L 16.6487 1.2207e-05"
                 stroke-width="2"
                 stroke-miterlimit="22.9256"
                 transform="translate(10.4233 34)"
                 stroke="#FDF396"
                 id="path1459" />
            </g>
            <g
               id="Vector_8">
              <path
                 d="M 3.75798e-07 -3.66211e-06L 16.6487 -3.66211e-06"
                 stroke-width="2"
                 stroke-miterlimit="22.9256"
                 transform="translate(10.4233 40)"
                 stroke="#FDF396"
                 id="path1462" />
            </g>
            <g
               id="Group">
              <g
                 id="Vector_9">
                <path
                   d="M 1.92748 0L 0 0L 0 21.6902L 1.92748 21.6902L 1.92748 0Z"
                   transform="matrix(1.48432 1.28322 -1.2799 1.48718 66.9536 11.752)"
                   fill="#FDF396"
                   id="path1465" />
                <path
                   d="M 0 0L 1.92748 0L 1.92748 21.6902L 0 21.6902L 0 0Z"
                   stroke-width="2"
                   stroke-miterlimit="22.9256"
                   stroke-linejoin="bevel"
                   transform="matrix(1.48432 1.28322 -1.2799 1.48718 66.9536 11.752)"
                   stroke="#FDF396"
                   id="path1467" />
              </g>
              <g
                 id="Vector_10">
                <path
                   d="M 0 6.26819L 2.87997 4.37061L 5.75995 2.47303L 4.32996 1.23574L 2.89998 9.41619e-07L 1.44999 3.13332L 0 6.26819Z"
                   stroke-width="2"
                   stroke-miterlimit="22.9256"
                   transform="translate(36.2925 44.0103)"
                   stroke="#FDF396"
                   id="path1470" />
              </g>
              <g
                 id="Vector_11">
                <path
                   fill-rule="evenodd"
                   clip-rule="evenodd"
                   d="M 0 3.07316L 1.41305 2.14442L 2.82456 1.21569L 2.12265 0.607843L 1.41921 -3.76648e-07L 0.709601 1.53658L 0 3.07316Z"
                   transform="translate(36.2925 47.2056)"
                   fill="#FDF396"
                   id="path1473" />
              </g>
            </g>
          </g>
        </g>
      </g>
    </g>
  </g>
</svg>
