<svg width="45" height="45" viewBox="0 0 45 45" version="1.1" xmlns="http://www.w3.org/2000/svg" xmlns:xlink="http://www.w3.org/1999/xlink">
<g id="Canvas" fill="none">
<g id="icon">
<g id="Group">
<g id="Group_2">
<g id="Vector">
<path fill-rule="evenodd" clip-rule="evenodd" d="M 12.2147 4.74492L 12.2146 4.74499C 9.06505 6.58287 6.58356 9.06432 4.74522 12.214L 3.01791 11.2058L 4.74522 12.214C 2.91587 15.3483 2 18.764 2 22.5C 2 26.236 2.91605 29.6511 4.7449 32.7858C 6.58308 35.9351 9.06456 38.4166 12.2142 40.255C 15.3486 42.084 18.7641 43 22.5003 43C 26.2366 43 29.6524 42.084 32.7866 40.255L 32.7867 40.255C 35.9358 38.4174 38.4173 35.9353 40.2555 32.7858C 42.0842 29.6516 43 26.236 43 22.5C 43.0001 18.7635 42.0842 15.3476 40.2557 12.2137C 38.4174 9.06453 35.936 6.58315 32.7867 4.745M 14.369 22.4998L 10.4805 26.3879C 10.4805 26.3879 10.4804 26.388 10.4804 26.388C 9.74754 27.1207 9.33794 28.0647 9.33794 29.1213C 9.33794 30.175 9.73175 31.1343 10.4802 31.8824C 10.4804 31.8826 10.4806 31.8828 10.4808 31.883C 10.4808 31.8831 10.4809 31.8831 10.4809 31.8831L 13.1171 34.5197L 13.118 34.5206C 13.8662 35.268 14.8246 35.6618 15.8792 35.6618C 16.9365 35.6618 17.8789 35.252 18.6111 34.5204L 18.6117 34.5198L 22.5004 30.6309L 26.3885 34.5195C 26.3887 34.5196 26.3888 34.5197 26.3889 34.5198C 27.1215 35.2527 28.0652 35.6618 29.1214 35.6618C 30.1756 35.6618 31.1348 35.2684 31.8833 34.52L 31.8837 34.5196L 34.5192 31.8833C 34.5193 31.8833 34.5194 31.8832 34.5194 31.8831C 35.2679 31.1354 35.6628 30.1761 35.6628 29.1213C 35.6628 28.0643 35.2528 27.1204 34.52 26.3881C 34.5197 26.3878 34.5195 26.3876 34.5192 26.3873L 30.6316 22.4998L 34.519 18.6122C 34.5194 18.6118 34.5197 18.6115 34.52 18.6112C 35.2524 17.8793 35.6628 16.936 35.6628 15.8787C 35.6628 14.8228 35.2676 13.8644 34.52 13.1167L 31.8837 10.4804C 31.8836 10.4804 31.8836 10.4803 31.8835 10.4803C 31.1353 9.73192 30.1761 9.33789 29.1214 9.33789C 28.0652 9.33789 27.1215 9.74703 26.389 10.4802C 26.3888 10.4804 26.3886 10.4806 26.3885 10.4807C 26.3882 10.481 26.388 10.4812 26.3878 10.4814L 22.5004 14.3686L 18.6116 10.4802L 18.6115 10.4801C 17.8796 9.7484 16.9372 9.33789 15.8792 9.33789C 14.8242 9.33789 13.8656 9.73208 13.1174 10.4801L 13.1173 10.4801L 10.4804 13.1166L 10.4799 13.1171C 9.7324 13.8651 9.33794 14.8235 9.33794 15.8787C 9.33794 16.9354 9.74746 17.8788 10.4803 18.6112C 10.4806 18.6115 10.4808 18.6117 10.4811 18.612L 14.369 22.4998ZM 32.7866 4.7449C 29.6519 2.9158 26.2374 2 22.5007 2C 18.7643 2 15.3486 2.91589 12.2147 4.74492" fill="black"/>
<path fill-rule="evenodd" clip-rule="evenodd" d="M 12.2147 4.74492L 12.2146 4.74499C 9.06505 6.58287 6.58356 9.06432 4.74522 12.214L 3.01791 11.2058L 4.74522 12.214C 2.91587 15.3483 2 18.764 2 22.5C 2 26.236 2.91605 29.6511 4.7449 32.7858C 6.58308 35.9351 9.06456 38.4166 12.2142 40.255C 15.3486 42.084 18.7641 43 22.5003 43C 26.2366 43 29.6524 42.084 32.7866 40.255L 32.7867 40.255C 35.9358 38.4174 38.4173 35.9353 40.2555 32.7858C 42.0842 29.6516 43 26.236 43 22.5C 43.0001 18.7635 42.0842 15.3476 40.2557 12.2137C 38.4174 9.06453 35.936 6.58315 32.7867 4.745M 14.369 22.4998L 10.4805 26.3879C 10.4805 26.3879 10.4804 26.388 10.4804 26.388C 9.74754 27.1207 9.33794 28.0647 9.33794 29.1213C 9.33794 30.175 9.73175 31.1343 10.4802 31.8824C 10.4804 31.8826 10.4806 31.8828 10.4808 31.883C 10.4808 31.8831 10.4809 31.8831 10.4809 31.8831L 13.1171 34.5197L 13.118 34.5206C 13.8662 35.268 14.8246 35.6618 15.8792 35.6618C 16.9365 35.6618 17.8789 35.252 18.6111 34.5204L 18.6117 34.5198L 22.5004 30.6309L 26.3885 34.5195C 26.3887 34.5196 26.3888 34.5197 26.3889 34.5198C 27.1215 35.2527 28.0652 35.6618 29.1214 35.6618C 30.1756 35.6618 31.1348 35.2684 31.8833 34.52L 31.8837 34.5196L 34.5192 31.8833C 34.5193 31.8833 34.5194 31.8832 34.5194 31.8831C 35.2679 31.1354 35.6628 30.1761 35.6628 29.1213C 35.6628 28.0643 35.2528 27.1204 34.52 26.3881C 34.5197 26.3878 34.5195 26.3876 34.5192 26.3873L 30.6316 22.4998L 34.519 18.6122C 34.5194 18.6118 34.5197 18.6115 34.52 18.6112C 35.2524 17.8793 35.6628 16.936 35.6628 15.8787C 35.6628 14.8228 35.2676 13.8644 34.52 13.1167L 31.8837 10.4804C 31.8836 10.4804 31.8836 10.4803 31.8835 10.4803C 31.1353 9.73192 30.1761 9.33789 29.1214 9.33789C 28.0652 9.33789 27.1215 9.74703 26.389 10.4802C 26.3888 10.4804 26.3886 10.4806 26.3885 10.4807C 26.3882 10.481 26.388 10.4812 26.3878 10.4814L 22.5004 14.3686L 18.6116 10.4802L 18.6115 10.4801C 17.8796 9.7484 16.9372 9.33789 15.8792 9.33789C 14.8242 9.33789 13.8656 9.73208 13.1174 10.4801L 13.1173 10.4801L 10.4804 13.1166L 10.4799 13.1171C 9.7324 13.8651 9.33794 14.8235 9.33794 15.8787C 9.33794 16.9354 9.74746 17.8788 10.4803 18.6112C 10.4806 18.6115 10.4808 18.6117 10.4811 18.612L 14.369 22.4998ZM 32.7866 4.7449C 29.6519 2.9158 26.2374 2 22.5007 2C 18.7643 2 15.3486 2.91589 12.2147 4.74492" stroke-width="4" stroke-miterlimit="8" stroke="black"/>
</g>
</g>
</g>
</g>
</g>
</svg>

