<svg width="80" height="102" viewBox="0 0 80 102" version="1.1" xmlns="http://www.w3.org/2000/svg" xmlns:xlink="http://www.w3.org/1999/xlink">
<g id="Canvas" fill="none">
<g id="Group 5">
<g id="Group 3.3">
<g id="Group">
<g id="&#208;&#145;&#208;&#181;&#208;&#183;&#209;&#139;&#208;&#188;&#209;&#143;&#208;&#189;&#208;&#189;&#209;&#139;&#208;&#185;-2">
<g id="&#208;&#161;&#208;&#187;&#208;&#190;&#208;&#185; x0020 1">
<g id="798957216">
<g id="Vector">
<path d="M 46.5427 100L 0 100L 0 0L 73 0L 73 64" stroke-width="2" stroke-miterlimit="22.9256" transform="translate(1 1)" stroke="#4F4F4F"/>
</g>
<g id="Vector_2">
<path d="M -3.03063e-07 1.09863e-05L 43.3602 1.09863e-05L 24.884 1.09863e-05" stroke-width="2" stroke-miterlimit="22.9256" transform="translate(17.1289 63.9033)" stroke="#4F4F4F"/>
</g>
<g id="Vector_3">
<path d="M -3.03063e-07 1.2207e-06L 43.3602 1.2207e-06L 24.884 1.2207e-06" stroke-width="2" stroke-miterlimit="22.9256" transform="translate(17.1289 54.2256)" stroke="#4F4F4F"/>
</g>
<g id="Vector_4">
<path d="M -3.03063e-07 -1.2207e-06L 43.3602 -1.2207e-06L 24.884 -1.2207e-06" stroke-width="2" stroke-miterlimit="22.9256" transform="translate(17.1289 44.5483)" stroke="#4F4F4F"/>
</g>
<g id="Vector_5">
<path d="M -3.03063e-07 -2.44141e-06L 43.3602 -2.44141e-06L 24.884 -2.44141e-06" stroke-width="2" stroke-miterlimit="22.9256" transform="translate(17.1289 34.8711)" stroke="#4F4F4F"/>
</g>
<g id="Vector_6">
<path d="M -3.03063e-07 -4.88281e-06L 43.3602 -4.88281e-06L 24.884 -4.88281e-06" stroke-width="2" stroke-miterlimit="22.9256" transform="translate(17.1289 25.1934)" stroke="#4F4F4F"/>
</g>
<g id="Vector_7">
<path d="M -3.03063e-07 -4.88281e-06L 43.3602 -4.88281e-06L 24.884 -4.88281e-06" stroke-width="2" stroke-miterlimit="22.9256" transform="translate(17.1289 15.5161)" stroke="#4F4F4F"/>
</g>
<g id="Vector_8">
<path d="M 0 0.000102382L 20.9677 -7.8755e-06L 24.884 0.000102382" stroke-width="2" stroke-miterlimit="22.9256" transform="translate(17.1289 73.5806)" stroke="#4F4F4F"/>
</g>
</g>
</g>
</g>
</g>
</g>
<g id="Group 4">
<g id="icon">
<g id="Group_2">
<g id="Group_3">
<g id="Vector_9">
<path fill-rule="evenodd" clip-rule="evenodd" d="M 8.72223 3.07657L 8.72217 3.0766C 6.34302 4.46492 4.46544 6.34247 3.07679 8.72169C 1.69261 11.0933 1 13.6796 1 16.5C 1 19.3205 1.69277 21.9063 3.07656 24.2781C 4.46513 26.6571 6.34272 28.5347 8.72197 29.9235C 11.0936 31.3074 13.6797 32 16.5002 32C 19.3208 32 21.9072 31.3073 24.2787 29.9234L 24.2787 29.9234C 26.6577 28.5353 28.5352 26.6572 29.9237 24.2782C 31.3075 21.9067 32 19.3204 32 16.5C 32.0001 13.6793 31.3075 11.0929 29.9241 8.72172C 28.5354 6.34274 26.6578 4.46517 24.2788 3.0766M 21.8032 16.4999L 24.9843 19.6809C 25.4375 20.1336 25.686 20.7085 25.686 21.3556C 25.686 22.0059 25.4452 22.5905 24.9844 23.0508C 24.9844 23.0509 24.9843 23.0509 24.9843 23.0509L 23.0514 24.9845L 23.0512 24.9847C 22.5903 25.4453 22.0059 25.6853 21.3557 25.6853C 20.7091 25.6853 20.1346 25.4375 19.6818 24.9845C 19.6818 24.9845 19.6817 24.9844 19.6817 24.9844L 16.5003 21.8026L 13.3186 24.9845L 13.3183 24.9849C 12.8656 25.4371 12.2919 25.6853 11.6447 25.6853C 10.9944 25.6853 10.4104 25.4452 9.94966 24.985L 9.94922 24.9845L 8.01584 23.0508C 8.01572 23.0507 8.01561 23.0506 8.01549 23.0505C 7.55469 22.5899 7.31449 22.0054 7.31449 21.3556C 7.31449 20.7088 7.56263 20.134 8.01565 19.6811L 11.1972 16.4999L 8.01594 13.3186C 7.56269 12.8659 7.31449 12.2914 7.31449 11.6444C 7.31449 10.9937 7.55503 10.4097 8.01535 9.94912L 8.0156 9.94886L 9.94933 8.01545L 9.94937 8.01541C 10.4101 7.55484 10.9942 7.31445 11.6447 7.31445C 12.2922 7.31445 12.866 7.56302 13.3185 8.01541L 13.3186 8.01548L 16.5003 11.1969L 19.6813 8.01609C 20.1341 7.56254 20.7088 7.31445 21.3557 7.31445C 22.0062 7.31445 22.5906 7.55478 23.0513 8.0155C 23.0513 8.01554 23.0513 8.01557 23.0514 8.0156L 24.9847 9.94892C 25.4451 10.4093 25.686 10.9934 25.686 11.6444C 25.686 12.2918 25.4373 12.8662 24.9842 13.3187L 21.8032 16.4999ZM 24.2787 3.07655C 21.9069 1.69257 19.3214 1 16.5005 1C 13.6798 1 11.0935 1.69261 8.72223 3.07657" transform="translate(47 68)" fill="#4F4F4F"/>
<path fill-rule="evenodd" clip-rule="evenodd" d="M 8.72223 3.07657L 8.72217 3.0766C 6.34302 4.46492 4.46544 6.34247 3.07679 8.72169C 1.69261 11.0933 1 13.6796 1 16.5C 1 19.3205 1.69277 21.9063 3.07656 24.2781C 4.46513 26.6571 6.34272 28.5347 8.72197 29.9235C 11.0936 31.3074 13.6797 32 16.5002 32C 19.3208 32 21.9072 31.3073 24.2787 29.9234L 24.2787 29.9234C 26.6577 28.5353 28.5352 26.6572 29.9237 24.2782C 31.3075 21.9067 32 19.3204 32 16.5C 32.0001 13.6793 31.3075 11.0929 29.9241 8.72172C 28.5354 6.34274 26.6578 4.46517 24.2788 3.0766M 21.8032 16.4999L 24.9843 19.6809C 25.4375 20.1336 25.686 20.7085 25.686 21.3556C 25.686 22.0059 25.4452 22.5905 24.9844 23.0508C 24.9844 23.0509 24.9843 23.0509 24.9843 23.0509L 23.0514 24.9845L 23.0512 24.9847C 22.5903 25.4453 22.0059 25.6853 21.3557 25.6853C 20.7091 25.6853 20.1346 25.4375 19.6818 24.9845C 19.6818 24.9845 19.6817 24.9844 19.6817 24.9844L 16.5003 21.8026L 13.3186 24.9845L 13.3183 24.9849C 12.8656 25.4371 12.2919 25.6853 11.6447 25.6853C 10.9944 25.6853 10.4104 25.4452 9.94966 24.985L 9.94922 24.9845L 8.01584 23.0508C 8.01572 23.0507 8.01561 23.0506 8.01549 23.0505C 7.55469 22.5899 7.31449 22.0054 7.31449 21.3556C 7.31449 20.7088 7.56263 20.134 8.01565 19.6811L 11.1972 16.4999L 8.01594 13.3186C 7.56269 12.8659 7.31449 12.2914 7.31449 11.6444C 7.31449 10.9937 7.55503 10.4097 8.01535 9.94912L 8.0156 9.94886L 9.94933 8.01545L 9.94937 8.01541C 10.4101 7.55484 10.9942 7.31445 11.6447 7.31445C 12.2922 7.31445 12.866 7.56302 13.3185 8.01541L 13.3186 8.01548L 16.5003 11.1969L 19.6813 8.01609C 20.1341 7.56254 20.7088 7.31445 21.3557 7.31445C 22.0062 7.31445 22.5906 7.55478 23.0513 8.0155C 23.0513 8.01554 23.0513 8.01557 23.0514 8.0156L 24.9847 9.94892C 25.4451 10.4093 25.686 10.9934 25.686 11.6444C 25.686 12.2918 25.4373 12.8662 24.9842 13.3187L 21.8032 16.4999ZM 24.2787 3.07655C 21.9069 1.69257 19.3214 1 16.5005 1C 13.6798 1 11.0935 1.69261 8.72223 3.07657" stroke-width="2" stroke-miterlimit="8" transform="translate(47 68)" stroke="#4F4F4F"/>
</g>
</g>
</g>
</g>
</g>
</g>
</g>
</svg>

