<svg width="109" height="114" viewBox="0 0 109 114" version="1.1" xmlns="http://www.w3.org/2000/svg" xmlns:xlink="http://www.w3.org/1999/xlink">
<title>icon</title>
<desc>Created using Figma</desc>
<g id="Canvas" transform="translate(-14367 -1381)">
<g id="icon">
<g id="Vector">
<use xlink:href="#path0_fill" transform="translate(14367 1381)" fill="#4F4F4F"/>
</g>
<g id="Vector">
<use xlink:href="#path1_fill" transform="translate(14418.7 1447.12)" fill="#4F4F4F"/>
</g>
<g id="Vector">
<use xlink:href="#path2_fill" transform="translate(14387.2 1402.8)" fill="#4F4F4F"/>
</g>
<g id="Vector">
<use xlink:href="#path3_fill" transform="translate(14387.2 1421.49)" fill="#4F4F4F"/>
</g>
<g id="Vector">
<use xlink:href="#path4_fill" transform="translate(14387.2 1440.17)" fill="#4F4F4F"/>
</g>
</g>
</g>
<defs>
<path id="path0_fill" d="M 12.4297 93.4335L 12.4297 12.4578L 77.6937 12.4578L 77.6937 80.4639L 90.1283 70.1722L 90.1283 6.2289C 90.1283 2.78942 87.347 0 83.9146 0L 6.21366 0C 2.78126 0 3.46268e-08 2.78942 3.46268e-08 6.2289L 3.46268e-08 99.66C 3.46268e-08 103.099 2.78126 105.889 6.21366 105.889L 60.4542 105.889L 51.6675 93.4335L 12.4297 93.4335Z"/>
<path id="path1_fill" d="M 56.327 0.849356C 55.182 -0.232455 53.4223 -0.28339 52.2168 0.7111L 23.7071 24.3217L 4.70786 12.8997C 3.44674 12.1429 1.8322 12.3685 0.827655 13.4551C -0.169629 14.5321 -0.278553 16.1645 0.571074 17.3676L 21.1606 46.5644C 21.7367 47.3818 22.6735 47.8717 23.6708 47.8814C 23.6805 47.8814 23.6901 47.8814 23.6998 47.8814C 24.6874 47.8814 25.6193 47.4133 26.2051 46.608L 56.7046 4.95345C 57.6244 3.68972 57.4671 1.93117 56.327 0.849356Z"/>
<path id="path2_fill" d="M 43.5125 -2.03563e-07L 6.21366 -2.03563e-07C 2.78126 -2.03563e-07 -1.84676e-07 2.78942 -1.84676e-07 6.2289C -1.84676e-07 9.66838 2.78126 12.4578 6.21366 12.4578L 43.5101 12.4578C 46.9425 12.4578 49.7214 9.66838 49.7214 6.2289C 49.7214 2.78942 46.9449 -2.03563e-07 43.5125 -2.03563e-07Z"/>
<path id="path3_fill" d="M 43.5125 -3.70115e-08L 6.21366 -3.70115e-08C 2.78126 -3.70115e-08 -1.84676e-07 2.78942 -1.84676e-07 6.2289C -1.84676e-07 9.66838 2.78126 12.4578 6.21366 12.4578L 43.5101 12.4578C 46.9425 12.4578 49.7214 9.67081 49.7214 6.2289C 49.7286 2.78942 46.9449 -3.70115e-08 43.5125 -3.70115e-08Z"/>
<path id="path4_fill" d="M 43.5125 1.11034e-06L 6.21366 1.11034e-06C 2.78126 1.11034e-06 -1.84676e-07 2.78942 -1.84676e-07 6.2289C -1.84676e-07 9.66838 2.78126 12.4578 6.21366 12.4578L 43.5101 12.4578C 46.9425 12.4578 49.7214 9.66838 49.7214 6.2289C 49.7286 2.78942 46.9449 1.11034e-06 43.5125 1.11034e-06Z"/>
</defs>
</svg>
