<svg width="1116" height="800" viewBox="0 0 1116 800" version="1.1" xmlns="http://www.w3.org/2000/svg" xmlns:xlink="http://www.w3.org/1999/xlink">
<g id="Canvas" fill="none">
<g id="video" filter="url(#filter0_d)">
<rect width="1108" height="792" fill="#FDF396" transform="translate(4 0)"/>
<g id="Group">
<g id="Vector">
<path d="M 1107.38 303.188C 1106.98 280.916 1105.21 252.755 1102.13 218.732C 1099.03 184.69 1094.6 154.267 1088.83 127.461C 1082.24 97.3524 1067.91 71.9811 1045.86 51.3559C 1023.81 30.7264 998.152 18.7679 968.877 15.4629C 877.361 5.15791 739.069 -5.55554e-06 553.998 -5.55554e-06C 368.924 -5.55554e-06 230.63 5.15791 139.121 15.4629C 109.85 18.7657 84.289 30.7264 62.4485 51.3559C 40.5993 71.9746 26.3775 97.3459 19.781 127.461C 13.6046 154.276 8.96144 184.697 5.87106 218.732C 2.78502 252.755 1.03085 280.905 0.62154 303.188C 0.203571 325.462 0 356.397 0 396C 0 435.599 0.203571 466.542 0.623706 488.812C 1.03301 511.1 2.78718 539.245 5.87323 573.265C 8.9636 607.305 13.3967 637.728 19.1681 664.539C 25.7647 694.656 40.0861 720.023 62.1388 740.64C 84.1959 761.265 109.861 773.226 139.123 776.528C 230.632 786.844 368.918 792 554 792C 739.089 792 877.363 786.844 968.879 776.528C 998.154 773.228 1023.7 761.265 1045.55 740.64C 1067.4 720.021 1081.62 694.641 1088.21 664.539C 1094.39 637.728 1099.03 607.305 1102.13 573.265C 1105.21 539.247 1106.96 511.087 1107.38 488.812C 1107.79 466.542 1108 435.599 1108 396C 1108 356.397 1107.79 325.462 1107.38 303.188ZM 772.882 429.414L 456.314 627.406C 450.541 631.53 443.526 633.591 435.286 633.591C 429.107 633.591 422.719 631.935 416.124 628.637C 402.524 621.221 395.726 609.665 395.726 593.995L 395.726 198.008C 395.726 182.341 402.526 170.785 416.124 163.363C 430.142 155.927 443.535 156.343 456.314 164.6L 772.884 362.595C 785.245 369.595 791.426 380.739 791.426 396.002C 791.426 411.259 785.243 422.407 772.882 429.414Z" transform="translate(4 0)" fill="black"/>
</g>
</g>
</g>
</g>
<defs>
<filter id="filter0_d" x="0" y="0" width="1116" height="800" filterUnits="userSpaceOnUse" color-interpolation-filters="sRGB">
<feFlood flood-opacity="0" result="BackgroundImageFix"/>
<feColorMatrix in="SourceAlpha" type="matrix" values="0 0 0 0 0 0 0 0 0 0 0 0 0 0 0 0 0 0 255 0"/>
<feOffset dy="4"/>
<feGaussianBlur stdDeviation="2"/>
<feColorMatrix type="matrix" values="0 0 0 0 0 0 0 0 0 0 0 0 0 0 0 0 0 0 0.25 0"/>
<feBlend mode="normal" in2="BackgroundImageFix" result="effect1_dropShadow"/>
<feBlend mode="normal" in="SourceGraphic" in2="effect1_dropShadow" result="shape"/>
</filter>

</defs>
</svg>

