<?xml version="1.0" encoding="UTF-8" standalone="no"?>
<!-- Created with Inkscape (http://www.inkscape.org/) -->

<svg
   xmlns:dc="http://purl.org/dc/elements/1.1/"
   xmlns:cc="http://creativecommons.org/ns#"
   xmlns:rdf="http://www.w3.org/1999/02/22-rdf-syntax-ns#"
   xmlns:svg="http://www.w3.org/2000/svg"
   xmlns="http://www.w3.org/2000/svg"
   xmlns:xlink="http://www.w3.org/1999/xlink"
   xmlns:sodipodi="http://sodipodi.sourceforge.net/DTD/sodipodi-0.dtd"
   xmlns:inkscape="http://www.inkscape.org/namespaces/inkscape"
   width="70mm"
   height="21mm"
   viewBox="0 0 70 21"
   version="1.1"
   id="svg3765"
   sodipodi:docname="apple_store.svg"
   inkscape:version="0.92.2 2405546, 2018-03-11">
  <defs
     id="defs3759">
    <linearGradient
       id="linear-gradient-4"
       x1="17.299999"
       y1="191.82001"
       x2="27.459999"
       y2="181.66"
       gradientTransform="matrix(1.3624752,0,0,-1.3624752,-4.5232922,500.83541)"
       gradientUnits="userSpaceOnUse">
      <stop
         offset="0"
         stop-color="#32a071"
         id="stop31" />
      <stop
         offset="0.07"
         stop-color="#2da771"
         id="stop33" />
      <stop
         offset="0.48"
         stop-color="#15cf74"
         id="stop35" />
      <stop
         offset="0.8"
         stop-color="#06e775"
         id="stop37" />
      <stop
         offset="1"
         stop-color="#00f076"
         id="stop39" />
    </linearGradient>
    <linearGradient
       id="linear-gradient-3"
       x1="34.830002"
       y1="169.7"
       x2="12.07"
       y2="146.95"
       gradientTransform="matrix(1.3624752,0,0,-1.3624752,-4.5232922,500.83541)"
       gradientUnits="userSpaceOnUse">
      <stop
         offset="0"
         stop-color="#ff3a44"
         id="stop26" />
      <stop
         offset="1"
         stop-color="#c31162"
         id="stop28" />
    </linearGradient>
    <linearGradient
       id="linear-gradient-2"
       x1="43.830002"
       y1="172"
       x2="19.639999"
       y2="172"
       gradientTransform="matrix(1.3624752,0,0,-1.3624752,-4.5232922,500.83541)"
       gradientUnits="userSpaceOnUse">
      <stop
         offset="0"
         stop-color="#ffe000"
         id="stop17" />
      <stop
         offset="0.41"
         stop-color="#ffbd00"
         id="stop19" />
      <stop
         offset="0.78"
         stop-color="orange"
         id="stop21" />
      <stop
         offset="1"
         stop-color="#ff9c00"
         id="stop23" />
    </linearGradient>
    <linearGradient
       id="linear-gradient"
       x1="31.799999"
       y1="183.28999"
       x2="15.02"
       y2="166.50999"
       gradientTransform="matrix(1.3624752,0,0,-1.3624752,-4.5232922,500.83541)"
       gradientUnits="userSpaceOnUse">
      <stop
         offset="0"
         stop-color="#00a0ff"
         id="stop4" />
      <stop
         offset="0.01"
         stop-color="#00a1ff"
         id="stop6" />
      <stop
         offset="0.26"
         stop-color="#00beff"
         id="stop8" />
      <stop
         offset="0.51"
         stop-color="#00d2ff"
         id="stop10" />
      <stop
         offset="0.76"
         stop-color="#00dfff"
         id="stop12" />
      <stop
         offset="1"
         stop-color="#00e3ff"
         id="stop14" />
    </linearGradient>
    <rect
       height="170.657"
       width="521.708"
       id="SVGID_1_" />
  </defs>
  <sodipodi:namedview
     id="base"
     pagecolor="#ffffff"
     bordercolor="#666666"
     borderopacity="1.0"
     inkscape:pageopacity="0.0"
     inkscape:pageshadow="2"
     inkscape:zoom="1.4"
     inkscape:cx="207.63588"
     inkscape:cy="3.4018727"
     inkscape:document-units="mm"
     inkscape:current-layer="layer1"
     showgrid="false"
     inkscape:window-width="3200"
     inkscape:window-height="1763"
     inkscape:window-x="0"
     inkscape:window-y="18"
     inkscape:window-maximized="0" />
  <metadata
     id="metadata3762">
    <rdf:RDF>
      <cc:Work
         rdf:about="">
        <dc:format>image/svg+xml</dc:format>
        <dc:type
           rdf:resource="http://purl.org/dc/dcmitype/StillImage" />
        <dc:title></dc:title>
      </cc:Work>
    </rdf:RDF>
  </metadata>
  <g
     inkscape:label="Layer 1"
     inkscape:groupmode="layer"
     id="layer1"
     transform="translate(0,-276)">
    <g
       id="g972"
       transform="matrix(0.13417467,0,0,0.13417467,0,274.10215)">
	<defs
   id="defs919">
		<rect
   height="170.657"
   width="521.70801"
   id="rect982"
   x="0"
   y="0" />

	</defs>

	<clipPath
   id="SVGID_2_">
		<use
   id="use921"
   overflow="visible"
   xlink:href="#SVGID_1_"
   style="overflow:visible"
   x="0"
   y="0"
   width="100%"
   height="100%" />

	</clipPath>

	<path
   id="path924"
   d="m 521.709,147.593 c 0,12.736 -10.322,23.064 -23.058,23.064 H 23.062 C 10.328,170.657 0,160.329 0,147.593 V 23.062 C 0,10.327 10.328,0 23.062,0 h 475.589 c 12.735,0 23.058,10.327 23.058,23.062 z"
   clip-path="url(#SVGID_2_)"
   inkscape:connector-curvature="0" />

	<path
   id="path926"
   d="m 136.047,112.804 c -2.762,6.122 -4.084,8.854 -7.639,14.264 -4.963,7.555 -11.955,16.961 -20.619,17.04 -7.701,0.071 -9.678,-5.012 -20.127,-4.954 -10.449,0.057 -12.631,5.043 -20.333,4.973 C 58.665,144.047 52.038,135.553 47.076,128 33.201,106.879 31.752,82.092 40.308,68.915 46.39,59.55 55.981,54.069 65.002,54.069 c 9.184,0 14.958,5.037 22.551,5.037 7.365,0 11.855,-5.045 22.473,-5.045 8.025,0 16.529,4.369 22.589,11.928 -19.853,10.877 -16.629,39.235 3.432,46.815"
   clip-path="url(#SVGID_2_)"
   inkscape:connector-curvature="0"
   style="fill:#ffffff" />

	<path
   id="path928"
   d="m 101.971,45.622 c 3.855,-4.951 6.787,-11.945 5.725,-19.092 -6.301,0.434 -13.674,4.444 -17.979,9.67 -3.906,4.746 -7.131,11.784 -5.875,18.623 6.879,0.213 13.996,-3.895 18.129,-9.201"
   clip-path="url(#SVGID_2_)"
   inkscape:connector-curvature="0"
   style="fill:#ffffff" />

	<path
   id="path930"
   d="m 178.316,68.595 -19.875,58.504 h 9.102 l 5.933,-17.964 h 19.244 l 6.102,17.964 h 9.353 l -19.96,-58.504 z m 4.716,9.619 c 0.671,2.611 1.395,5.323 2.326,8.254 l 5.357,15.512 H 175.47 l 5.282,-15.613 c 0.804,-2.532 1.568,-5.266 2.28,-8.153"
   clip-path="url(#SVGID_2_)"
   inkscape:connector-curvature="0"
   style="fill:#ffffff" />

	<path
   id="path932"
   d="m 233.894,83.761 c -6.029,0 -10.857,2.327 -14.072,6.751 l -0.353,-5.819 h -8.096 l 0.048,0.744 c 0.239,3.625 0.338,7.615 0.338,13.343 v 45.094 h 8.852 V 122.83 c 2.746,3.286 7.131,5.199 12.099,5.199 5.174,0 9.94,-2.026 13.413,-5.702 3.877,-4.098 5.922,-9.988 5.922,-17.025 0,-6.219 -1.776,-11.596 -5.142,-15.546 -3.297,-3.866 -7.915,-5.995 -13.009,-5.995 m -2.205,7.328 c 7.891,0 11.422,7.309 11.422,14.553 0,9.343 -4.506,15.146 -11.758,15.146 -4.951,0 -9.234,-3.37 -10.428,-8.214 -0.205,-0.75 -0.314,-1.744 -0.314,-2.865 v -7.118 c 0,-0.645 0.144,-1.427 0.281,-2.185 0.044,-0.242 0.092,-0.484 0.127,-0.719 1.32,-5.065 5.702,-8.598 10.67,-8.598"
   clip-path="url(#SVGID_2_)"
   inkscape:connector-curvature="0"
   style="fill:#ffffff" />

	<path
   id="path934"
   d="m 279.474,83.761 c -6.026,0 -10.854,2.327 -14.072,6.751 l -0.354,-5.819 h -8.093 l 0.044,0.744 c 0.241,3.629 0.342,7.615 0.342,13.343 v 45.094 h 8.853 V 122.83 c 2.746,3.286 7.128,5.199 12.096,5.199 5.173,0 9.939,-2.026 13.418,-5.702 3.872,-4.098 5.919,-9.988 5.919,-17.025 0,-6.219 -1.779,-11.596 -5.145,-15.546 -3.296,-3.866 -7.914,-5.995 -13.008,-5.995 m -2.203,7.328 c 7.887,0 11.419,7.309 11.419,14.553 0,9.343 -4.51,15.146 -11.758,15.146 -4.948,0 -9.235,-3.37 -10.428,-8.214 -0.205,-0.75 -0.312,-1.744 -0.312,-2.865 v -7.118 c 0,-0.648 0.142,-1.434 0.281,-2.192 0.044,-0.238 0.088,-0.477 0.128,-0.711 1.317,-5.066 5.701,-8.599 10.67,-8.599"
   clip-path="url(#SVGID_2_)"
   inkscape:connector-curvature="0"
   style="fill:#ffffff" />

	<path
   id="path936"
   d="m 336.577,93.384 c -8.262,-3.199 -10.907,-5.715 -10.907,-10.363 0,-3.914 3.108,-7.862 10.06,-7.862 5.735,0 9.403,1.995 10.392,2.609 l 0.75,0.463 2.498,-7.387 -0.494,-0.289 c -1.483,-0.869 -5.709,-2.892 -12.891,-2.892 -11.288,0 -19.172,6.664 -19.172,16.202 0,7.693 4.938,13.07 15.536,16.923 7.512,2.808 10.308,5.684 10.308,10.614 0,5.581 -4.312,9.044 -11.251,9.044 -4.519,0 -9.169,-1.317 -12.758,-3.617 l -0.767,-0.492 -2.376,7.558 0.436,0.289 c 3.342,2.231 9.631,3.847 14.959,3.847 15.213,0 20.608,-9.277 20.608,-17.221 0,-8.19 -4.325,-13.24 -14.931,-17.426"
   clip-path="url(#SVGID_2_)"
   inkscape:connector-curvature="0"
   style="fill:#ffffff" />

	<path
   id="path938"
   d="m 367.44,74.613 -8.682,2.726 v 7.353 h -6.354 v 7.074 h 6.354 v 21.67 c 0,5.238 1.002,8.91 3.065,11.23 1.978,2.168 5.019,3.362 8.563,3.362 3.347,0 5.724,-0.661 6.842,-1.057 l 0.496,-0.176 -0.424,-7.087 -0.849,0.261 c -1.119,0.344 -2.269,0.476 -4.117,0.476 -3.43,0 -4.896,-2.17 -4.896,-7.265 V 91.767 h 10.679 V 84.693 H 367.44 Z"
   clip-path="url(#SVGID_2_)"
   inkscape:connector-curvature="0"
   style="fill:#ffffff" />

	<path
   id="path940"
   d="m 400.055,83.761 c -12.386,0 -21.033,9.244 -21.033,22.472 0,12.834 8.369,21.796 20.354,21.796 h 0.082 c 10.134,0 21.033,-7.059 21.033,-22.558 0,-6.302 -1.949,-11.715 -5.64,-15.656 -3.712,-3.959 -8.831,-6.054 -14.796,-6.054 m -0.256,6.988 c 7.963,0 11.588,7.763 11.588,14.979 0,8.873 -4.947,15.313 -11.756,15.313 h -0.087 c -6.713,0 -11.586,-6.333 -11.586,-15.058 0,-7.582 3.662,-15.234 11.841,-15.234"
   clip-path="url(#SVGID_2_)"
   inkscape:connector-curvature="0"
   style="fill:#ffffff" />

	<path
   id="path942"
   d="m 447.603,84.172 -0.53,-0.135 c -0.78,-0.194 -1.416,-0.276 -2.201,-0.276 -4.631,0 -8.786,2.727 -11.098,7.126 l -0.261,-6.194 h -7.942 l 0.051,0.744 c 0.236,3.504 0.334,7.437 0.334,12.746 l -0.082,28.916 h 8.851 V 104.54 c 0,-1.229 0.084,-2.389 0.244,-3.431 0.998,-5.418 4.655,-8.921 9.313,-8.921 0.905,0 1.619,0.074 2.375,0.148 l 0.946,0.098 z"
   clip-path="url(#SVGID_2_)"
   inkscape:connector-curvature="0"
   style="fill:#ffffff" />

	<path
   id="path944"
   d="m 467.504,83.677 c -11.783,0 -20.015,9.415 -20.015,22.896 0,12.981 8.188,21.372 20.861,21.372 6.665,0 11.301,-1.463 14.014,-2.688 l 0.533,-0.239 -1.701,-6.597 -0.737,0.298 c -2.412,0.981 -5.619,1.983 -11.091,1.983 -3.846,0 -12.715,-1.268 -13.258,-12.834 l 28.571,0.086 0.115,-0.565 c 0.179,-0.899 0.265,-2.111 0.265,-3.694 0.001,-9.235 -4.596,-20.018 -17.557,-20.018 m -0.59,6.734 c 2.694,0 4.883,0.834 6.497,2.479 2.548,2.592 2.992,6.408 3.05,8.24 h -20.188 c 0.823,-5.111 4.02,-10.719 10.641,-10.719"
   clip-path="url(#SVGID_2_)"
   inkscape:connector-curvature="0"
   style="fill:#ffffff" />

	<path
   id="path946"
   d="m 158.44,28.63 c 2.466,-0.328 5.342,-0.574 8.491,-0.574 5.707,0 9.769,1.15 12.463,3.41 2.784,2.258 4.382,5.504 4.382,9.982 0,4.519 -1.598,8.215 -4.427,10.763 -2.922,2.588 -7.67,3.985 -13.65,3.985 -2.876,0 -5.204,-0.082 -7.259,-0.329 z m 4.018,24.526 c 1.004,0.164 2.465,0.164 4.018,0.164 8.49,0.04 13.099,-4.272 13.099,-11.749 0.046,-6.614 -4.062,-10.682 -12.461,-10.682 -2.052,0 -3.606,0.167 -4.656,0.37 z"
   clip-path="url(#SVGID_2_)"
   inkscape:connector-curvature="0"
   style="fill:#ffffff" />

	<path
   id="path948"
   d="m 198.013,56.401 c -5.935,0 -10.59,-3.943 -10.59,-10.229 0,-6.655 4.884,-10.558 10.955,-10.558 6.346,0 10.635,4.148 10.635,10.188 0,7.395 -5.705,10.599 -10.953,10.599 z m 0.137,-2.712 c 3.834,0 6.711,-3.245 6.711,-7.765 0,-3.368 -1.872,-7.599 -6.619,-7.599 -4.703,0 -6.757,3.944 -6.757,7.723 0,4.355 2.739,7.641 6.619,7.641 z"
   clip-path="url(#SVGID_2_)"
   inkscape:connector-curvature="0"
   style="fill:#ffffff" />

	<path
   id="path950"
   d="m 215.369,36.065 2.967,10.066 c 0.592,2.218 1.187,4.313 1.597,6.368 h 0.137 c 0.502,-2.014 1.233,-4.15 1.963,-6.327 l 3.606,-10.107 h 3.379 l 3.424,9.941 c 0.82,2.343 1.46,4.479 1.962,6.493 h 0.137 c 0.365,-2.014 0.96,-4.109 1.689,-6.451 l 3.149,-9.983 h 3.972 l -7.121,19.884 h -3.652 l -3.377,-9.489 c -0.775,-2.26 -1.416,-4.232 -1.965,-6.574 h -0.09 c -0.548,2.383 -1.232,4.478 -2.009,6.615 l -3.56,9.448 h -3.651 L 211.26,36.065 Z"
   clip-path="url(#SVGID_2_)"
   inkscape:connector-curvature="0"
   style="fill:#ffffff" />

	<path
   id="path952"
   d="m 247.371,41.448 c 0,-2.096 -0.046,-3.738 -0.184,-5.383 h 3.562 l 0.227,3.247 h 0.092 c 1.096,-1.849 3.652,-3.698 7.303,-3.698 3.059,0 7.806,1.643 7.806,8.463 v 11.872 h -4.016 V 44.487 c 0,-3.204 -1.325,-5.914 -5.114,-5.914 -2.602,0 -4.657,1.684 -5.386,3.696 -0.183,0.452 -0.274,1.109 -0.274,1.685 V 55.949 H 247.37 V 41.448 Z"
   clip-path="url(#SVGID_2_)"
   inkscape:connector-curvature="0"
   style="fill:#ffffff" />

	<rect
   id="rect954"
   height="29.167"
   width="4.0180001"
   clip-path="url(#SVGID_2_)"
   y="26.782"
   x="272.70499"
   style="fill:#ffffff" />

	<path
   id="path956"
   d="m 292.38,56.401 c -5.933,0 -10.59,-3.943 -10.59,-10.229 0,-6.655 4.882,-10.558 10.955,-10.558 6.344,0 10.635,4.148 10.635,10.188 0,7.395 -5.706,10.599 -10.955,10.599 z m 0.136,-2.712 c 3.835,0 6.712,-3.245 6.712,-7.765 0,-3.368 -1.872,-7.599 -6.618,-7.599 -4.703,0 -6.758,3.944 -6.758,7.723 0,4.355 2.738,7.641 6.619,7.641 z"
   clip-path="url(#SVGID_2_)"
   inkscape:connector-curvature="0"
   style="fill:#ffffff" />

	<path
   id="path958"
   d="m 324.016,51.185 c 0,1.725 0.092,3.408 0.319,4.764 h -3.606 l -0.365,-2.504 h -0.135 c -1.188,1.56 -3.609,2.957 -6.756,2.957 -4.474,0 -6.756,-2.834 -6.756,-5.711 0,-4.806 4.745,-7.436 13.28,-7.395 v -0.41 c 0,-1.642 -0.5,-4.642 -5.019,-4.6 -2.103,0 -4.245,0.532 -5.797,1.477 l -0.914,-2.423 c 1.826,-1.026 4.518,-1.725 7.304,-1.725 6.801,0 8.444,4.148 8.444,8.134 v 7.436 z m -3.924,-5.382 c -4.384,-0.082 -9.358,0.616 -9.358,4.478 0,2.382 1.733,3.451 3.743,3.451 2.921,0 4.793,-1.644 5.431,-3.328 0.139,-0.369 0.185,-0.782 0.185,-1.151 v -3.45 z"
   clip-path="url(#SVGID_2_)"
   inkscape:connector-curvature="0"
   style="fill:#ffffff" />

	<path
   id="path960"
   d="m 349.533,26.782 v 24.031 c 0,1.767 0.049,3.78 0.183,5.136 h -3.604 l -0.183,-3.45 h -0.092 c -1.231,2.218 -3.88,3.902 -7.485,3.902 -5.343,0 -9.496,-4.066 -9.496,-10.106 -0.047,-6.656 4.565,-10.681 9.904,-10.681 3.427,0 5.708,1.44 6.667,2.999 h 0.091 V 26.782 Z m -4.015,17.377 c 0,-0.493 -0.046,-1.068 -0.185,-1.561 -0.591,-2.259 -2.783,-4.149 -5.795,-4.149 -4.155,0 -6.621,3.286 -6.621,7.642 0,4.066 2.239,7.392 6.529,7.392 2.693,0 5.159,-1.642 5.887,-4.312 0.139,-0.492 0.185,-0.987 0.185,-1.561 z"
   clip-path="url(#SVGID_2_)"
   inkscape:connector-curvature="0"
   style="fill:#ffffff" />

	<path
   id="path962"
   d="m 374.868,56.401 c -5.933,0 -10.59,-3.943 -10.59,-10.229 0,-6.655 4.887,-10.558 10.956,-10.558 6.347,0 10.636,4.148 10.636,10.188 0,7.395 -5.707,10.599 -10.953,10.599 z m 0.139,-2.712 c 3.834,0 6.709,-3.245 6.709,-7.765 0,-3.368 -1.868,-7.599 -6.616,-7.599 -4.703,0 -6.756,3.944 -6.756,7.723 0,4.355 2.737,7.641 6.616,7.641 z"
   clip-path="url(#SVGID_2_)"
   inkscape:connector-curvature="0"
   style="fill:#ffffff" />

	<path
   id="path964"
   d="m 390.94,41.448 c 0,-2.096 -0.047,-3.738 -0.184,-5.383 h 3.562 l 0.23,3.247 h 0.089 c 1.097,-1.849 3.651,-3.698 7.303,-3.698 3.06,0 7.808,1.643 7.808,8.463 v 11.872 h -4.019 V 44.487 c 0,-3.204 -1.321,-5.914 -5.112,-5.914 -2.601,0 -4.656,1.684 -5.388,3.696 -0.181,0.452 -0.272,1.109 -0.272,1.685 v 11.995 h -4.017 z"
   clip-path="url(#SVGID_2_)"
   inkscape:connector-curvature="0"
   style="fill:#ffffff" />

	<path
   id="path966"
   d="m 430.793,31.302 v 4.764 h 5.75 v 2.752 h -5.75 v 10.723 c 0,2.464 0.776,3.861 3.014,3.861 1.093,0 1.733,-0.082 2.328,-0.246 l 0.181,2.752 c -0.775,0.246 -2.007,0.494 -3.56,0.494 -1.871,0 -3.379,-0.576 -4.338,-1.52 -1.097,-1.109 -1.552,-2.877 -1.552,-5.219 V 38.818 h -3.424 v -2.752 h 3.424 V 32.41 Z"
   clip-path="url(#SVGID_2_)"
   inkscape:connector-curvature="0"
   style="fill:#ffffff" />

	<path
   id="path968"
   d="m 441.064,26.782 h 4.016 v 12.406 h 0.093 c 0.637,-1.027 1.642,-1.971 2.877,-2.547 1.187,-0.656 2.599,-1.027 4.108,-1.027 2.965,0 7.713,1.643 7.713,8.504 v 11.831 h -4.016 v -11.42 c 0,-3.246 -1.324,-5.916 -5.113,-5.916 -2.603,0 -4.61,1.644 -5.387,3.615 -0.229,0.493 -0.275,1.027 -0.275,1.726 v 11.995 h -4.016 z"
   clip-path="url(#SVGID_2_)"
   inkscape:connector-curvature="0"
   style="fill:#ffffff" />

	<path
   id="path970"
   d="m 468.682,46.624 c 0.093,4.889 3.517,6.902 7.533,6.902 2.875,0 4.655,-0.453 6.119,-0.987 l 0.729,2.547 c -1.418,0.575 -3.882,1.274 -7.396,1.274 -6.759,0 -10.865,-4.068 -10.865,-10.023 0,-6.039 3.972,-10.764 10.406,-10.764 7.215,0 9.084,5.71 9.084,9.367 0,0.74 -0.044,1.315 -0.136,1.725 z m 11.733,-2.588 c 0.044,-2.26 -1.051,-5.875 -5.524,-5.875 -4.11,0 -5.844,3.369 -6.163,5.875 z"
   clip-path="url(#SVGID_2_)"
   inkscape:connector-curvature="0"
   style="fill:#ffffff" />

</g>
  </g>
</svg>
