<svg width="35" height="26" viewBox="0 0 35 26" version="1.1" xmlns="http://www.w3.org/2000/svg" xmlns:xlink="http://www.w3.org/1999/xlink">
<g id="Canvas" fill="none">
<g id="Group">
<g id="Vector">
<path fill-rule="evenodd" clip-rule="evenodd" d="M 0.754158 20.0785L 0.754309 20.0786C 0.937289 20.25 1.14096 20.3306 1.38944 20.3306L 9.22546 20.3306L 9.22546 13.0191L 9.22546 12.5191L 9.72546 12.5191L 15.2836 12.5191L 15.7836 12.5191L 15.7836 13.0191L 15.7836 20.3309L 23.6195 20.3309C 23.8684 20.3309 24.072 20.2503 24.254 20.0793L 24.255 20.0783C 24.4366 19.9087 24.5094 19.7322 24.5094 19.5283L 24.5094 9.90505L 12.5045 0.631804L 0.5 9.90505L 0.5 19.5283C 0.5 19.7324 0.572644 19.9087 0.754158 20.0785Z" stroke-miterlimit="8" transform="translate(4.89844 5.16895)" stroke="black"/>
</g>
<g id="Vector_2">
<path fill-rule="evenodd" clip-rule="evenodd" d="M 34.4513 13.1086L 34.4514 13.1085L 29.6973 9.40628L 29.5045 9.25614L 29.5045 9.01179L 29.5045 0.712139C 29.5045 0.650817 29.4898 0.630426 29.4674 0.609495L 29.4661 0.6083C 29.4425 0.58613 29.4048 0.561275 29.3098 0.561275L 25.1417 0.561275C 25.0478 0.561275 25.0091 0.585675 24.984 0.609124C 24.9618 0.629995 24.947 0.650893 24.947 0.712139L 24.947 4.67882L 24.947 5.70572L 24.1387 5.07241L 18.8445 0.924631C 18.4779 0.64607 18.0378 0.5 17.5005 0.5C 16.9633 0.5 16.5231 0.64609 16.1559 0.924934L 0.548904 13.1082L 0.540896 13.1144L 0.540835 13.1144C 0.520922 13.1293 0.514567 13.1395 0.512045 13.1441C 0.509384 13.149 0.503253 13.162 0.500875 13.1912M 34.4513 13.1086L 34.4582 13.1138ZM 17.5001 2.84409L 17.8079 3.08462L 32.8307 14.8223L 32.8389 14.8288L 32.8388 14.8289C 32.8448 14.8337 32.8755 14.8582 32.9788 14.8582L 33.0024 14.8582C 33.0693 14.8444 33.1074 14.8201 33.1345 14.7932L 34.4683 13.3017C 34.4933 13.2714 34.5034 13.2443 34.4991 13.1919L 34.4991 13.1914C 34.4967 13.1627 34.4907 13.1497 34.4878 13.1445C 34.4851 13.1395 34.4784 13.129 34.4582 13.1138M 17.5001 2.84409L 17.1922 3.08462ZM 0.531642 13.3014L 1.86646 14.7943C 1.89336 14.8213 1.93354 14.8472 2.00987 14.861C 2.05409 14.8618 2.11291 14.8505 2.19311 14.804L 17.1922 3.08462M 0.531642 13.3014C 0.50716 13.2719 0.496616 13.2447 0.500861 13.1914Z" stroke-miterlimit="8" stroke="black"/>
</g>
</g>
</g>
</svg>

