<svg width="125" height="125" viewBox="0 0 125 125" version="1.1" xmlns="http://www.w3.org/2000/svg" xmlns:xlink="http://www.w3.org/1999/xlink">
<title>Vector</title>
<desc>Created using Figma</desc>
<g id="Canvas" transform="translate(-12788 -3425)">
<g id="Vector">
<use xlink:href="#path0_fill" transform="translate(12788 3425)" fill="#000000"/>
</g>
</g>
<defs>
<path id="path0_fill" d="M 116.62 31.1273C 111.031 21.5522 103.45 13.971 93.8743 8.38219C 84.2971 2.79368 73.8424 0 62.502 0C 51.1627 0 40.7048 2.79368 31.1294 8.38219C 21.5534 13.9701 13.9722 21.5514 8.38308 31.1273C 2.7937 40.7038 0 51.1617 0 62.5C 0 73.8389 2.79455 84.2951 8.38223 93.8721C 13.971 103.447 21.5523 111.028 31.1283 116.618C 40.7048 122.206 51.1619 125 62.5009 125C 73.8398 125 84.298 122.206 93.874 116.618C 103.449 111.03 111.03 103.447 116.619 93.8721C 122.207 84.2959 125 73.8383 125 62.5C 125 51.1605 122.207 40.7024 116.62 31.1273ZM 91.9605 77.2286C 92.9915 78.2585 93.5077 79.4819 93.5077 80.8925C 93.5077 82.3556 92.9915 83.6044 91.9605 84.6343L 84.6369 91.9601C 83.6068 92.9899 82.3583 93.505 80.8929 93.505C 79.4825 93.505 78.2603 92.9899 77.231 91.9601L 62.5011 77.2286L 47.7707 91.9601C 46.74 92.9899 45.5195 93.505 44.1088 93.505C 42.6437 93.505 41.3961 92.9899 40.3651 91.9601L 33.0403 84.6343C 32.0096 83.6044 31.4943 82.3556 31.4943 80.8925C 31.4943 79.4821 32.0099 78.2588 33.0403 77.2286L 47.7707 62.4997L 33.0403 47.7694C 32.0096 46.7398 31.4943 45.5181 31.4943 44.1075C 31.4943 42.6424 32.0099 41.3947 33.0403 40.3637L 40.3651 33.0402C 41.3961 32.0095 42.6437 31.4941 44.1088 31.4941C 45.5195 31.4941 46.74 32.0098 47.7707 33.0402L 62.5011 47.7694L 77.231 33.0402C 78.26 32.0095 79.4822 31.4941 80.8929 31.4941C 82.3583 31.4941 83.6068 32.0098 84.6369 33.0402L 91.9605 40.3637C 92.9915 41.3947 93.5077 42.6424 93.5077 44.1075C 93.5077 45.5178 92.9915 46.7398 91.9605 47.7694L 77.231 62.4997L 91.9605 77.2286Z"/>
</defs>
</svg>
