<svg width="114" height="102" viewBox="0 0 114 102" version="1.1" xmlns="http://www.w3.org/2000/svg" xmlns:xlink="http://www.w3.org/1999/xlink">
<g id="Canvas" fill="none">
<g id="&#208;&#145;&#208;&#181;&#208;&#183;&#209;&#139;&#208;&#188;&#209;&#143;&#208;&#189;&#208;&#189;&#209;&#139;&#208;&#185;-1">
<g id="&#208;&#161;&#208;&#187;&#208;&#190;&#208;&#185; x0020 1">
<g id="798126592">
<g id="Vector">
<path d="M -6.06126e-07 13.3601C 2.81785 15.4477 9.58816 5.98224 13.9453 0.162096C 14.7993 -0.977547 13.2154 4.23794 12.8504 5.03419C 9.78677 11.6805 9.98787 10.8071 13.8236 10.0879C 15.3232 9.80676 12.1577 15.7314 14.0371 14.3604C 27.4462 4.61616 13.4711 17.3687 20.3258 13.7258C 22.8259 12.3946 25.5072 9.76944 27.6051 12.2005C 28.7372 13.5069 29.842 11.6158 32.1931 13.4919C 32.8783 14.0369 37.9132 11.1281 39.3904 10.5607" stroke-width="2" stroke-miterlimit="22.9256" transform="translate(11.6357 74.0757)" stroke="#4F4F4F"/>
</g>
<g id="Vector_2">
<path d="M 74.5602 81.2855L 74.5602 100L 3.03063e-07 100L 3.03063e-07 -6.07496e-07L 72.9241 -6.07496e-07L 72.9241 44.262" stroke-width="2" stroke-miterlimit="22.9256" transform="translate(1 1)" stroke="#4F4F4F"/>
</g>
<g id="Vector_3">
<path d="M 6.06126e-07 -7.32422e-06L 43.6184 -7.32422e-06" stroke-width="2" stroke-miterlimit="22.9256" transform="translate(16.1987 15.5161)" stroke="#4F4F4F"/>
</g>
<g id="Vector_4">
<path d="M 6.06126e-07 3.05176e-06L 43.6184 3.05176e-06" stroke-width="2" stroke-miterlimit="22.9256" transform="translate(16.1987 25.1938)" stroke="#4F4F4F"/>
</g>
<g id="Vector_5">
<path d="M 6.06126e-07 -6.10352e-07L 43.6184 -6.10352e-07" stroke-width="2" stroke-miterlimit="22.9256" transform="translate(16.1987 34.8706)" stroke="#4F4F4F"/>
</g>
<g id="Vector_6">
<path d="M 6.06126e-07 7.32422e-06L 43.6184 7.32422e-06" stroke-width="2" stroke-miterlimit="22.9256" transform="translate(16 44.5483)" stroke="#4F4F4F"/>
</g>
<g id="Vector_7">
<path d="M 0 0C 0 0 18.9093 0 32.5 0" stroke-width="2" stroke-miterlimit="22.9256" transform="translate(16 54)" stroke="#4F4F4F"/>
</g>
<g id="Vector_8">
<path d="M 6.06126e-07 -3.66211e-06L 26.8528 -3.66211e-06" stroke-width="2" stroke-miterlimit="22.9256" transform="translate(16 63.9033)" stroke="#4F4F4F"/>
</g>
<g id="Group">
<g id="Vector_9">
<path d="M 3.10885 0L 0 0L 0 34.9842L 3.10885 34.9842L 3.10885 0Z" transform="matrix(1.48432 1.28322 -1.2799 1.48718 107.376 18.3418)" fill="#4F4F4F"/>
<path d="M 0 0L 3.10885 0L 3.10885 34.9842L 0 34.9842L 0 0Z" stroke-width="2" stroke-miterlimit="22.9256" stroke-linejoin="bevel" transform="matrix(1.48432 1.28322 -1.2799 1.48718 107.376 18.3418)" stroke="#4F4F4F"/>
</g>
<g id="Vector_10">
<path d="M 0 10.11L 4.64511 7.04937L 9.29024 3.98875L 6.98381 1.99313L 4.67739 1.51874e-06L 2.3387 5.05375L 0 10.11Z" stroke-width="2" stroke-miterlimit="22.9256" transform="translate(57.9233 70.3716)" stroke="#4F4F4F"/>
</g>
<g id="Vector_11">
<path fill-rule="evenodd" clip-rule="evenodd" d="M 2.37528 2.19842L 2.6401 1.62496L 2.769 1.73633L 2.76982 1.73704L 2.90222 1.8517L 2.37528 2.19842Z" transform="translate(57.9233 75.5249)" fill="#4F4F4F"/>
<path fill-rule="evenodd" clip-rule="evenodd" d="M 2.37528 2.19842L 2.6401 1.62496L 2.769 1.73633L 2.76982 1.73704L 2.90222 1.8517L 2.37528 2.19842Z" stroke-width="2" stroke-miterlimit="8" transform="translate(57.9233 75.5249)" stroke="#4F4F4F"/>
</g>
</g>
</g>
</g>
</g>
</g>
</svg>

