<svg width="57" height="44" viewBox="0 0 57 44" version="1.1" xmlns="http://www.w3.org/2000/svg" xmlns:xlink="http://www.w3.org/1999/xlink">
<title>Group</title>
<desc>Created using Figma</desc>
<g id="Canvas" transform="translate(-4390 -743)">
<g id="Group">
<g id="Vector">
<use xlink:href="#path0_fill" transform="translate(4390 743)" fill="#FDF396"/>
</g>
<g id="Vector">
<use xlink:href="#path1_fill" transform="translate(4390 757.187)" fill="#FDF396"/>
</g>
</g>
</g>
<defs>
<path id="path0_fill" d="M 5.47086 13.5625C 6.19191 14.0624 8.36539 15.5471 11.9914 18.0158C 15.6176 20.4844 18.3955 22.3852 20.3252 23.7183C 20.5372 23.8644 20.9876 24.1821 21.6767 24.6716C 22.3659 25.1616 22.9385 25.5575 23.3942 25.8595C 23.8502 26.1613 24.4014 26.5 25.0485 26.8749C 25.6953 27.2494 26.3051 27.5312 26.8776 27.7177C 27.4502 27.9057 27.9803 27.9989 28.468 27.9989L 28.4999 27.9989L 28.532 27.9989C 29.0197 27.9989 29.55 27.9056 30.1226 27.7177C 30.6949 27.5312 31.3052 27.2491 31.9515 26.8749C 32.5981 26.4996 33.1494 26.1612 33.6054 25.8595C 34.0614 25.5575 34.6336 25.1616 35.323 24.6716C 36.0119 24.1816 36.4629 23.8644 36.6749 23.7183C 38.6255 22.3852 43.588 18.9997 51.5609 13.5619C 53.1088 12.4998 54.402 11.2183 55.4409 9.71824C 56.4806 8.21881 56.9999 6.64582 56.9999 5.00016C 56.9999 3.62495 56.496 2.44776 55.4886 1.46868C 54.4814 0.489376 53.2884 -3.34032e-08 51.9105 -3.34032e-08L 5.08907 -3.34032e-08C 3.45636 -3.34032e-08 2.19989 0.541587 1.31987 1.62476C 0.439955 2.70815 0 4.06234 0 5.68721C 0 6.99969 0.583339 8.42196 1.74946 9.95314C 2.91547 11.4844 4.15635 12.6877 5.47086 13.5625Z"/>
<path id="path1_fill" d="M 53.8187 2.71866C 46.8641 7.34327 41.5833 10.9374 37.9789 13.5002C 36.7702 14.3748 35.7897 15.0576 35.0367 15.5469C 34.2836 16.0365 33.2822 16.5365 32.0308 17.0466C 30.7799 17.5576 29.6141 17.8123 28.5325 17.8123L 28.5001 17.8123L 28.4681 17.8123C 27.3866 17.8123 26.2202 17.5576 24.9693 17.0466C 23.7184 16.5365 22.7162 16.0365 21.9634 15.5469C 21.2109 15.0576 20.23 14.3748 19.0215 13.5002C 16.1586 11.4378 10.8891 7.84349 3.21293 2.71866C 2.00392 1.92751 0.933053 1.02067 0 -3.87477e-07L 0 24.812C 0 26.1878 0.498111 27.3644 1.49489 28.3436C 2.49145 29.3231 3.68976 29.8127 5.0894 29.8127L 51.9109 29.8127C 53.3102 29.8127 54.5084 29.3231 55.5051 28.3436C 56.5021 27.364 57 26.1879 57 24.812L 57 -3.87477e-07C 56.088 0.999549 55.0281 1.90639 53.8187 2.71866Z"/>
</defs>
</svg>
