<svg width="58" height="58" viewBox="0 0 58 58" version="1.1" xmlns="http://www.w3.org/2000/svg" xmlns:xlink="http://www.w3.org/1999/xlink">
<title>Group</title>
<desc>Created using Figma</desc>
<g id="Canvas" transform="translate(-4198 -736)">
<g id="Group">
<g id="Vector">
<use xlink:href="#path0_fill" transform="translate(4198 736)" fill="#FDF396"/>
</g>
<g id="Vector">
<use xlink:href="#path1_fill" transform="translate(4217.07 750.28)" fill="#FDF396"/>
</g>
</g>
</g>
<defs>
<path id="path0_fill" d="M 53.364 14.2241C 50.8065 9.84861 47.3374 6.38425 42.9558 3.83037C 38.5734 1.27662 33.7895 0 28.6002 0C 23.4115 0 18.6261 1.27662 14.2445 3.83037C 9.86262 6.38386 6.39352 9.84822 3.83601 14.2241C 1.27836 18.6002 0 23.3791 0 28.5603C 0 33.7418 1.27876 38.5199 3.83561 42.8963C 6.393 47.2718 9.8621 50.7361 14.244 53.2903C 18.6261 55.8439 23.4111 57.1207 28.5997 57.1207C 33.7883 57.1207 38.5738 55.8439 42.9557 53.2903C 47.3373 50.7371 50.8063 47.2718 53.3635 42.8963C 55.9204 38.5203 57.1986 33.7416 57.1986 28.5603C 57.1987 23.3786 55.9204 18.5996 53.364 14.2241ZM 46.1393 38.7124C 44.3271 41.8113 41.8695 44.2664 38.7664 46.0762C 35.6632 47.8859 32.2746 48.7899 28.5998 48.7899C 24.926 48.7899 21.5371 47.8859 18.4336 46.0762C 15.3305 44.2663 12.8729 41.8113 11.0606 38.7124C 9.24802 35.6136 8.34204 32.2294 8.34204 28.5603C 8.34204 24.891 9.24841 21.5068 11.0606 18.408C 12.8725 15.3091 15.3307 12.8543 18.4336 11.0447C 21.5367 9.23485 24.9254 8.33024 28.5998 8.33024C 32.2745 8.33024 35.6632 9.23485 38.7664 11.0447C 41.8695 12.8545 44.3272 15.3091 46.1393 18.408C 47.9516 21.5068 48.8572 24.891 48.8572 28.5603C 48.8572 32.2294 47.9516 35.6136 46.1393 38.7124Z"/>
<path id="path1_fill" d="M 13.108 -4.29303e-07L 10.7245 -4.29303e-07C 10.3764 -4.29303e-07 10.0915 0.111887 9.86757 0.334751C 9.64506 0.557876 9.53302 0.842741 9.53302 1.18987L 9.53302 14.2804L 1.1915 14.2804C 0.843633 14.2804 0.558511 14.3917 0.33495 14.6143C 0.111651 14.8373 -1.75141e-07 15.1225 -1.75141e-07 15.4702L -1.75141e-07 17.8501C -1.75141e-07 18.1973 0.111651 18.4826 0.33495 18.7055C 0.558641 18.9283 0.844286 19.0397 1.1915 19.0397L 13.1087 19.0397C 13.4559 19.0397 13.7417 18.9283 13.9644 18.7055C 14.1876 18.4826 14.3 18.1973 14.3 17.8501L 14.3 1.18987C 14.3 0.843002 14.1876 0.558267 13.9644 0.334751C 13.7414 0.111887 13.4558 -4.29303e-07 13.108 -4.29303e-07Z"/>
</defs>
</svg>
